{
	"asset":{
		"generator":"Khronos glTF Blender I/O v4.1.63",
		"version":"2.0"
	},
	"extensionsUsed":[
		"KHR_materials_specular"
	],
	"scene":0,
	"scenes":[
		{
			"name":"Scene",
			"nodes":[
				0
			]
		}
	],
	"nodes":[
		{
			"mesh":0,
			"name":"Wing_cubes_2",
			"rotation":[
				0.7071068286895752,
				0,
				0,
				0.7071068286895752
			],
			"scale":[
				0.10000000149011612,
				0.10000000149011612,
				0.10000000149011612
			]
		}
	],
	"materials":[
		{
			"doubleSided":true,
			"extensions":{
				"KHR_materials_specular":{
					"specularFactor":0
				}
			},
			"name":"wire_204204204",
			"pbrMetallicRoughness":{
				"baseColorFactor":[
					0.800000011920929,
					0.800000011920929,
					0.800000011920929,
					1
				],
				"metallicFactor":0
			}
		}
	],
	"meshes":[
		{
			"name":"Wing_cubes_2",
			"primitives":[
				{
					"attributes":{
						"POSITION":0,
						"NORMAL":1,
						"TEXCOORD_0":2
					},
					"indices":3,
					"material":0
				}
			]
		}
	],
	"accessors":[
		{
			"bufferView":0,
			"componentType":5126,
			"count":1271309,
			"max":[
				317.3080139160156,
				424.56549072265625,
				80.1135025024414
			],
			"min":[
				-332.13519287109375,
				-127.25959777832031,
				-343.7847900390625
			],
			"type":"VEC3"
		},
		{
			"bufferView":1,
			"componentType":5126,
			"count":1271309,
			"type":"VEC3"
		},
		{
			"bufferView":2,
			"componentType":5126,
			"count":1271309,
			"type":"VEC2"
		},
		{
			"bufferView":3,
			"componentType":5125,
			"count":1382886,
			"type":"SCALAR"
		}
	],
	"bufferViews":[
		{
			"buffer":0,
			"byteLength":15255708,
			"byteOffset":0,
			"target":34962
		},
		{
			"buffer":0,
			"byteLength":15255708,
			"byteOffset":15255708,
			"target":34962
		},
		{
			"buffer":0,
			"byteLength":10170472,
			"byteOffset":30511416,
			"target":34962
		},
		{
			"buffer":0,
			"byteLength":5531544,
			"byteOffset":40681888,
			"target":34963
		}
	],
	"buffers":[
		{
			"byteLength":46213432,
			"uri":"nave.bin"
		}
	]
}
